<svg xmlns="http://www.w3.org/2000/svg" viewBox="0 0 1200 900"><defs><linearGradient id="b" x1="0" y1="0" x2="1" y2="1"><stop stop-color="#f2d8bf"/><stop offset=".55" stop-color="#b8734e"/><stop offset="1" stop-color="#4a3027"/></linearGradient><linearGradient id="cream" x1="0" y1="0" x2="0" y2="1"><stop stop-color="#fff8ee"/><stop offset="1" stop-color="#f0c59d"/></linearGradient></defs><rect width="1200" height="900" fill="url(#b)"/><circle cx="930" cy="160" r="230" fill="#fffaf5" opacity=".12"/><ellipse cx="600" cy="760" rx="420" ry="55" fill="#241813" opacity=".22"/><g transform="translate(150 100)"><ellipse cx="450" cy="470" rx="350" ry="90" fill="#fffaf5" stroke="#e8dbce" stroke-width="12"/><rect x="170" y="300" width="560" height="170" rx="38" fill="#8b5941"/><path d="M170 315 Q450 170 730 315 Q450 430 170 315Z" fill="url(#cream)"/><path d="M215 355 Q450 460 685 355" fill="none" stroke="#d69c70" stroke-width="24"/><path d="M250 415 Q450 500 650 415" fill="none" stroke="#f4d5b8" stroke-width="18"/><g fill="#c88455"><circle cx="270" cy="285" r="16"/><circle cx="450" cy="235" r="16"/><circle cx="630" cy="285" r="16"/></g></g><text x="600" y="830" text-anchor="middle" fill="#fffaf5" font-family="Georgia,serif" font-size="44" letter-spacing="8">RESHBAKE</text></svg>